<svg width="26" height="25" viewBox="0 0 26 25" fill="none" xmlns="http://www.w3.org/2000/svg">
<path d="M14 23V24.5H15.5V23H14ZM15.0607 0.93934C14.4749 0.353553 13.5251 0.353553 12.9393 0.93934L3.3934 10.4853C2.80761 11.0711 2.80761 12.0208 3.3934 12.6066C3.97918 13.1924 4.92893 13.1924 5.51472 12.6066L14 4.12132L22.4853 12.6066C23.0711 13.1924 24.0208 13.1924 24.6066 12.6066C25.1924 12.0208 25.1924 11.0711 24.6066 10.4853L15.0607 0.93934ZM0 24.5H14V21.5H0V24.5ZM15.5 23V2H12.5V23H15.5Z" fill="white"/>
</svg>
