<svg width="101" height="101" viewBox="0 0 101 101" fill="none" xmlns="http://www.w3.org/2000/svg">
<mask id="path-1-inside-1_181_467" fill="white">
<path d="M82.1344 24.7101C82.6565 24.2844 83.4265 24.3617 83.8368 24.896C90.2948 33.3038 93.3465 43.8573 92.3494 54.4421C91.3141 65.4325 85.997 75.5744 77.5466 82.6773C69.0963 89.7801 58.1909 93.2737 47.1863 92.4034C36.1817 91.5331 25.9611 86.3688 18.7323 78.0259C11.5035 69.6831 7.84666 58.8314 8.55178 47.815C9.2569 36.7985 14.2673 26.5016 22.5008 19.1484C30.7343 11.7953 41.5299 7.97608 52.5556 8.51586C63.1747 9.03572 73.1863 13.5587 80.5891 21.1477C81.0595 21.63 81.0264 22.4031 80.5307 22.8593C80.0351 23.3155 79.2646 23.282 78.7934 22.8006C71.8251 15.6825 62.4154 11.441 52.4364 10.9524C42.0505 10.444 31.8814 14.0415 24.1258 20.968C16.3702 27.8944 11.6505 37.5937 10.9863 47.9708C10.3221 58.3479 13.7667 68.5698 20.576 76.4284C27.3853 84.2871 37.0127 89.1517 47.3787 89.9715C57.7446 90.7913 68.017 87.5005 75.9769 80.8098C83.9369 74.1192 88.9454 64.5658 89.9206 54.2134C90.8576 44.2664 87.9988 34.3488 81.9452 26.4381C81.5358 25.9031 81.6123 25.1358 82.1344 24.7101Z"/>
</mask>
<path d="M82.1344 24.7101C82.6565 24.2844 83.4265 24.3617 83.8368 24.896C90.2948 33.3038 93.3465 43.8573 92.3494 54.4421C91.3141 65.4325 85.997 75.5744 77.5466 82.6773C69.0963 89.7801 58.1909 93.2737 47.1863 92.4034C36.1817 91.5331 25.9611 86.3688 18.7323 78.0259C11.5035 69.6831 7.84666 58.8314 8.55178 47.815C9.2569 36.7985 14.2673 26.5016 22.5008 19.1484C30.7343 11.7953 41.5299 7.97608 52.5556 8.51586C63.1747 9.03572 73.1863 13.5587 80.5891 21.1477C81.0595 21.63 81.0264 22.4031 80.5307 22.8593C80.0351 23.3155 79.2646 23.282 78.7934 22.8006C71.8251 15.6825 62.4154 11.441 52.4364 10.9524C42.0505 10.444 31.8814 14.0415 24.1258 20.968C16.3702 27.8944 11.6505 37.5937 10.9863 47.9708C10.3221 58.3479 13.7667 68.5698 20.576 76.4284C27.3853 84.2871 37.0127 89.1517 47.3787 89.9715C57.7446 90.7913 68.017 87.5005 75.9769 80.8098C83.9369 74.1192 88.9454 64.5658 89.9206 54.2134C90.8576 44.2664 87.9988 34.3488 81.9452 26.4381C81.5358 25.9031 81.6123 25.1358 82.1344 24.7101Z" stroke="white" stroke-width="4" stroke-linejoin="round" mask="url(#path-1-inside-1_181_467)"/>
<mask id="path-2-inside-2_181_467" fill="white">
<path d="M16.5358 41.7786C15.9753 41.6346 15.636 41.0628 15.7962 40.5067C18.3164 31.7537 24.0573 24.2618 31.8846 19.5535C40.0117 14.6647 49.7358 13.1692 58.9563 15.39C68.1769 17.6108 76.1537 23.3696 81.1638 31.4224C86.1739 39.4753 87.8152 49.1758 85.733 58.4286C83.6508 67.6814 78.0123 75.7438 70.0355 80.8741C62.0587 86.0045 52.3839 87.7911 43.1009 85.8479C33.8179 83.9048 25.6718 78.3879 20.4224 70.4889C15.3666 62.8814 13.3884 53.6524 14.8607 44.6637C14.9543 44.0925 15.5057 43.7212 16.0739 43.8312C16.6421 43.9413 17.0118 44.4911 16.9193 45.0625C15.5511 53.5106 17.4168 62.1798 22.168 69.3288C27.1128 76.7694 34.786 81.9661 43.5303 83.7965C52.2745 85.6268 61.3879 83.944 68.9017 79.1114C76.4156 74.2787 81.7268 66.6843 83.6882 57.9685C85.6495 49.2527 84.1036 40.1151 79.3842 32.5296C74.6649 24.9441 67.151 19.5195 58.4656 17.4276C49.7802 15.3357 40.6204 16.7444 32.965 21.3495C25.6094 25.7741 20.2098 32.8083 17.8272 41.0282C17.666 41.5841 17.0964 41.9225 16.5358 41.7786Z"/>
</mask>
<path d="M16.5358 41.7786C15.9753 41.6346 15.636 41.0628 15.7962 40.5067C18.3164 31.7537 24.0573 24.2618 31.8846 19.5535C40.0117 14.6647 49.7358 13.1692 58.9563 15.39C68.1769 17.6108 76.1537 23.3696 81.1638 31.4224C86.1739 39.4753 87.8152 49.1758 85.733 58.4286C83.6508 67.6814 78.0123 75.7438 70.0355 80.8741C62.0587 86.0045 52.3839 87.7911 43.1009 85.8479C33.8179 83.9048 25.6718 78.3879 20.4224 70.4889C15.3666 62.8814 13.3884 53.6524 14.8607 44.6637C14.9543 44.0925 15.5057 43.7212 16.0739 43.8312C16.6421 43.9413 17.0118 44.4911 16.9193 45.0625C15.5511 53.5106 17.4168 62.1798 22.168 69.3288C27.1128 76.7694 34.786 81.9661 43.5303 83.7965C52.2745 85.6268 61.3879 83.944 68.9017 79.1114C76.4156 74.2787 81.7268 66.6843 83.6882 57.9685C85.6495 49.2527 84.1036 40.1151 79.3842 32.5296C74.6649 24.9441 67.151 19.5195 58.4656 17.4276C49.7802 15.3357 40.6204 16.7444 32.965 21.3495C25.6094 25.7741 20.2098 32.8083 17.8272 41.0282C17.666 41.5841 17.0964 41.9225 16.5358 41.7786Z" stroke="white" stroke-width="4" stroke-linejoin="round" mask="url(#path-2-inside-2_181_467)"/>
<path d="M21.8047 57.703C21.5324 58.1835 21.7012 58.7938 22.1817 59.0661L30.0119 63.5031C30.4924 63.7754 31.1027 63.6066 31.375 63.1261C31.6472 62.6456 31.4784 62.0353 30.9979 61.763L24.0377 57.819L27.9817 50.8588C28.254 50.3783 28.0852 49.768 27.6047 49.4958C27.1242 49.2235 26.514 49.3923 26.2417 49.8728L21.8047 57.703ZM79.1957 43.2956C79.4679 42.8151 79.2991 42.2049 78.8186 41.9326L70.9884 37.4955C70.5079 37.2233 69.8976 37.3921 69.6254 37.8726C69.3531 38.3531 69.5219 38.9633 70.0024 39.2356L76.9626 43.1796L73.0186 50.1398C72.7463 50.6203 72.9151 51.2306 73.3956 51.5029C73.8761 51.7752 74.4863 51.6064 74.7586 51.1258L79.1957 43.2956ZM22.9413 59.1599L78.5922 43.7664L78.059 41.8388L22.4081 57.2322L22.9413 59.1599Z" fill="white"/>
<circle cx="51.0922" cy="49.9078" r="8.47253" transform="rotate(-15 51.0922 49.9078)" stroke="white" stroke-width="2"/>
</svg>
