<svg width="46" height="61" viewBox="0 0 46 61" fill="none" xmlns="http://www.w3.org/2000/svg">
<g clip-path="url(#clip0_124_234)">
<path d="M18.3885 40.6807C18.458 38.105 20.5561 36.0612 23.0754 36.1138C25.6449 36.1664 27.7121 38.3485 27.6155 40.9067C27.517 43.4882 25.4034 45.5125 22.8899 45.4346C20.3417 45.3547 18.3189 43.2193 18.3885 40.6807ZM22.9711 39.2292C22.1384 39.2506 21.4757 39.9559 21.4912 40.8053C21.5066 41.6509 22.2079 42.3387 23.0329 42.3192C23.8617 42.2997 24.5302 41.5866 24.5147 40.743C24.4993 39.9013 23.7922 39.2097 22.9711 39.2311V39.2292Z" fill="#1D1D1B"/>
<path d="M21.4638 51.6653C22.907 51.6653 24.3482 51.6575 25.7914 51.6673C26.9371 51.675 27.6132 52.2673 27.6075 53.2279C27.6036 54.1845 26.9274 54.769 25.774 54.7729C22.8896 54.7807 20.0052 54.7826 17.1208 54.7729C15.9713 54.769 15.3028 54.1767 15.3067 53.2123C15.3105 52.2517 15.9809 51.675 17.1362 51.6673C18.5775 51.6575 20.0206 51.6653 21.4638 51.6653Z" fill="#1D1D1B"/>
<path d="M32.243 51.6771C33.066 51.6537 33.775 52.3434 33.7924 53.1851C33.8098 54.0307 33.1452 54.7418 32.3144 54.7652C31.4895 54.7886 30.7843 54.1028 30.7669 53.2572C30.7496 52.4038 31.4064 51.7024 32.241 51.6771H32.243Z" fill="#1D1D1B"/>
<path d="M31.087 24.6246C30.9324 24.305 30.7528 23.9504 30.7528 23.6095C30.7296 18.916 30.7547 9.52897 30.7547 9.52897C30.7547 9.52897 30.6697 9.20165 31.0773 8.81199C31.8694 8.05409 33.8555 7.56311 33.8555 4.64063C33.8536 2.10976 32.4065 0.0114195 28.9792 0.0114195C27.565 0.0114195 18.2433 -0.0255986 16.6746 0.0309027C14.5223 0.106887 12.7565 1.60709 12.2948 3.65868C11.8331 5.71416 12.7971 7.82224 14.7233 8.81199C15.1773 9.04579 15.2816 9.31076 15.2797 9.77056C15.2681 14.2829 15.2797 18.7932 15.2604 23.3056C15.2604 23.703 15.1541 24.1316 14.9841 24.4901C14.0645 26.4287 13.1082 28.3517 12.1673 30.2805C8.30916 38.181 4.45876 46.0853 0.590976 53.9799C-0.212719 55.6204 -0.216583 57.2219 0.69337 58.8001C1.37922 59.9885 2.54033 60.5399 3.7536 61.0017H42.2518C42.7831 60.7581 43.3549 60.5769 43.8399 60.2594C45.9785 58.8585 46.5852 56.3939 45.4067 53.9799C40.6347 44.1955 35.8551 34.4129 31.087 24.6265V24.6246ZM17.1073 3.12679C21.0485 3.11899 24.9897 3.11704 28.9309 3.12679C30.0244 3.12873 30.6871 3.72687 30.6987 4.66011C30.7102 5.62259 30.036 6.21877 28.8923 6.23241C28.0171 6.2441 27.14 6.21877 26.2648 6.2402C25.2273 6.26553 24.5898 6.86561 24.5821 7.77548C24.5743 8.68729 25.2119 9.29907 26.2358 9.34193C26.6686 9.35947 27.1013 9.34583 27.6404 9.34583V10.3141C27.6404 14.6433 27.6558 18.9725 27.6288 23.3017C27.623 24.2368 27.8046 25.0785 28.2393 25.9046C28.9077 27.1788 29.5105 28.4861 30.1751 29.85H15.838C16.2669 28.9576 16.6108 28.0692 17.0957 27.2684C18.1409 25.5481 18.45 23.7186 18.3959 21.7118C18.2935 17.9301 18.367 14.1426 18.367 10.359C18.367 10.0531 18.367 9.74523 18.367 9.34193C18.9601 9.34193 19.4218 9.36726 19.8797 9.33609C20.8051 9.27374 21.4098 8.66391 21.4233 7.81639C21.4368 6.93575 20.8205 6.28501 19.8565 6.2441C18.9562 6.20708 18.054 6.2402 17.1517 6.23046C15.9887 6.21877 15.3202 5.65766 15.3067 4.69713C15.2932 3.73077 15.9636 3.12484 17.1073 3.12289V3.12679ZM40.967 57.8883C34.9915 57.8902 29.014 57.8883 23.0384 57.8883C17.0629 57.8883 11.0854 57.8883 5.10983 57.8883C3.28413 57.8883 2.63692 56.8537 3.43869 55.2093C6.95099 48.0064 10.473 40.8054 13.9717 33.5966C14.1978 33.1329 14.4528 32.979 14.9648 32.9809C20.3221 33.0023 25.6814 33.0023 31.0387 32.9809C31.5545 32.979 31.8057 33.1368 32.0298 33.5985C35.5402 40.8326 39.0718 48.0551 42.5937 55.2834C43.3491 56.8323 42.6884 57.8863 40.967 57.8863V57.8883Z" fill="#1D1D1B"/>
</g>
<defs>
<clipPath id="clip0_124_234">
<rect width="46" height="61" fill="white" transform="translate(0 -0.000244141)"/>
</clipPath>
</defs>
</svg>
