<svg width="86" height="86" viewBox="0 0 86 86" fill="none" xmlns="http://www.w3.org/2000/svg">
<mask id="path-1-inside-1_144_800" fill="white">
<path d="M69.3663 20.8689C69.8072 20.5094 70.4575 20.5747 70.8041 21.0259C76.2581 28.1267 78.8354 37.0396 77.9933 45.9791C77.1189 55.2609 72.6284 63.8263 65.4917 69.825C58.355 75.8237 49.1449 78.7742 39.851 78.0392C30.5571 77.3041 21.9253 72.9426 15.8202 65.8967C9.71511 58.8507 6.62677 49.686 7.22228 40.3821C7.81778 31.0782 12.0493 22.3819 19.0029 16.1718C25.9564 9.96174 35.0738 6.73626 44.3856 7.19212C53.3539 7.63117 61.8092 11.451 68.0612 17.8604C68.4585 18.2676 68.4305 18.9206 68.0119 19.3058C67.5933 19.6911 66.9426 19.6628 66.5446 19.2562C60.6596 13.2447 52.7127 9.66253 44.2849 9.24994C35.5135 8.82053 26.9253 11.8588 20.3753 17.7085C13.8253 23.5582 9.83929 31.7497 9.27835 40.5137C8.7174 49.2776 11.6265 57.9105 17.3773 64.5475C23.1281 71.1845 31.2589 75.2929 40.0134 75.9853C48.768 76.6777 57.4435 73.8984 64.166 68.2478C70.8886 62.5973 75.1185 54.529 75.9421 45.7858C76.7335 37.3851 74.3191 29.0092 69.2065 22.3283C68.8608 21.8765 68.9253 21.2284 69.3663 20.8689Z"/>
</mask>
<path d="M69.3663 20.8689C69.8072 20.5094 70.4575 20.5747 70.8041 21.0259C76.2581 28.1267 78.8354 37.0396 77.9933 45.9791C77.1189 55.2609 72.6284 63.8263 65.4917 69.825C58.355 75.8237 49.1449 78.7742 39.851 78.0392C30.5571 77.3041 21.9253 72.9426 15.8202 65.8967C9.71511 58.8507 6.62677 49.686 7.22228 40.3821C7.81778 31.0782 12.0493 22.3819 19.0029 16.1718C25.9564 9.96174 35.0738 6.73626 44.3856 7.19212C53.3539 7.63117 61.8092 11.451 68.0612 17.8604C68.4585 18.2676 68.4305 18.9206 68.0119 19.3058C67.5933 19.6911 66.9426 19.6628 66.5446 19.2562C60.6596 13.2447 52.7127 9.66253 44.2849 9.24994C35.5135 8.82053 26.9253 11.8588 20.3753 17.7085C13.8253 23.5582 9.83929 31.7497 9.27835 40.5137C8.7174 49.2776 11.6265 57.9105 17.3773 64.5475C23.1281 71.1845 31.2589 75.2929 40.0134 75.9853C48.768 76.6777 57.4435 73.8984 64.166 68.2478C70.8886 62.5973 75.1185 54.529 75.9421 45.7858C76.7335 37.3851 74.3191 29.0092 69.2065 22.3283C68.8608 21.8765 68.9253 21.2284 69.3663 20.8689Z" stroke="#1D1D1B" stroke-width="4" stroke-linejoin="round" mask="url(#path-1-inside-1_144_800)"/>
<mask id="path-2-inside-2_144_800" fill="white">
<path d="M13.9652 35.284C13.4918 35.1624 13.2053 34.6795 13.3406 34.2098C15.469 26.8175 20.3175 20.4903 26.928 16.5138C33.7917 12.385 42.0042 11.122 49.7913 12.9976C57.5785 14.8731 64.3153 19.7367 68.5466 26.5377C72.7779 33.3388 74.164 41.5313 72.4055 49.3457C70.647 57.1602 65.885 63.9692 59.1482 68.3021C52.4114 72.6349 44.2406 74.1437 36.4006 72.5026C28.5607 70.8615 21.681 66.2023 17.2476 59.5312C12.9777 53.1063 11.3071 45.312 12.5505 37.7206C12.6295 37.2382 13.0952 36.9246 13.5751 37.0176C14.055 37.1105 14.3672 37.5749 14.2891 38.0574C13.1336 45.1922 14.7093 52.5138 18.7218 58.5515C22.8979 64.8354 29.3784 69.2242 36.7633 70.7701C44.1482 72.3159 51.8449 70.8947 58.1907 66.8133C64.5365 62.7319 69.0221 56.318 70.6786 48.9571C72.335 41.5962 71.0294 33.8791 67.0437 27.4728C63.0579 21.0665 56.7121 16.4852 49.3769 14.7185C42.0416 12.9518 34.3058 14.1415 27.8404 18.0306C21.6283 21.7675 17.0681 27.7082 15.0558 34.6502C14.9197 35.1197 14.4387 35.4056 13.9652 35.284Z"/>
</mask>
<path d="M13.9652 35.284C13.4918 35.1624 13.2053 34.6795 13.3406 34.2098C15.469 26.8175 20.3175 20.4903 26.928 16.5138C33.7917 12.385 42.0042 11.122 49.7913 12.9976C57.5785 14.8731 64.3153 19.7367 68.5466 26.5377C72.7779 33.3388 74.164 41.5313 72.4055 49.3457C70.647 57.1602 65.885 63.9692 59.1482 68.3021C52.4114 72.6349 44.2406 74.1437 36.4006 72.5026C28.5607 70.8615 21.681 66.2023 17.2476 59.5312C12.9777 53.1063 11.3071 45.312 12.5505 37.7206C12.6295 37.2382 13.0952 36.9246 13.5751 37.0176C14.055 37.1105 14.3672 37.5749 14.2891 38.0574C13.1336 45.1922 14.7093 52.5138 18.7218 58.5515C22.8979 64.8354 29.3784 69.2242 36.7633 70.7701C44.1482 72.3159 51.8449 70.8947 58.1907 66.8133C64.5365 62.7319 69.0221 56.318 70.6786 48.9571C72.335 41.5962 71.0294 33.8791 67.0437 27.4728C63.0579 21.0665 56.7121 16.4852 49.3769 14.7185C42.0416 12.9518 34.3058 14.1415 27.8404 18.0306C21.6283 21.7675 17.0681 27.7082 15.0558 34.6502C14.9197 35.1197 14.4387 35.4056 13.9652 35.284Z" stroke="#1D1D1B" stroke-width="4" stroke-linejoin="round" mask="url(#path-2-inside-2_144_800)"/>
<path d="M18.2798 48.6567C18.0075 49.1372 18.1763 49.7474 18.6568 50.0197L26.487 54.4567C26.9675 54.729 27.5778 54.5602 27.8501 54.0797C28.1223 53.5992 27.9535 52.9889 27.473 52.7167L20.5128 48.7726L24.4568 41.8124C24.7291 41.3319 24.5603 40.7217 24.0798 40.4494C23.5993 40.1771 22.9891 40.3459 22.7168 40.8264L18.2798 48.6567ZM67.0197 36.6422C67.2919 36.1617 67.1231 35.5514 66.6426 35.2791L58.8124 30.8421C58.3319 30.5698 57.7216 30.7386 57.4494 31.2191C57.1771 31.6996 57.3459 32.3099 57.8264 32.5822L64.7866 36.5262L60.8426 43.4864C60.5703 43.9669 60.7391 44.5772 61.2196 44.8494C61.7001 45.1217 62.3104 44.9529 62.5826 44.4724L67.0197 36.6422ZM19.4164 50.1135L66.4162 37.113L65.883 35.1854L18.8832 48.1858L19.4164 50.1135Z" fill="#1D1D1B"/>
<circle cx="43.1498" cy="42.1497" r="7" transform="rotate(-15 43.1498 42.1497)" stroke="#1D1D1B" stroke-width="2"/>
</svg>
