<svg width="198" height="67" viewBox="0 0 198 67" fill="none" xmlns="http://www.w3.org/2000/svg">
<path d="M86.6899 42.3098C82.3399 42.3098 79.6299 41.7598 79.6299 41.7598V39.8198C79.6299 39.8198 81.9099 40.1098 85.5099 40.1098C89.5499 40.1098 90.4399 40.1098 90.4399 37.2198C90.4399 34.8598 90.4399 34.6198 88.2099 34.2298L83.9899 33.4998C79.7099 32.7698 79.7099 31.1898 79.7099 28.5898C79.7099 24.1598 82.4899 23.8398 86.3499 23.8398C90.4699 23.8398 92.9899 24.3598 92.9899 24.3598V26.2998C92.9899 26.2998 90.9199 26.0398 87.5299 26.0398C83.8799 26.0398 82.9899 26.0398 82.9899 28.5598C82.9899 30.5298 82.9899 30.8398 85.1899 31.1798L89.4399 31.8898C93.6899 32.5998 93.6899 34.1698 93.6899 37.1598C93.6899 41.9898 91.4899 42.2998 86.6899 42.2998V42.3098Z" fill="white"/>
<path d="M98.4902 41.9899V24.1499H111.76V26.3499H101.66V31.8599H110.95V33.9099H101.66V39.7899H111.92V41.9899H98.4902Z" fill="white"/>
<path d="M128.74 41.9899L125.59 34.4899H120.16V41.9899H116.99V24.1499H125.46C129.24 24.1499 131.68 24.3099 131.68 29.4799C131.68 32.8899 130.74 33.9699 128.72 34.3299L132.26 41.9899H128.74ZM124.86 26.3499H120.16V32.2799H124.93C127.95 32.2799 128.39 32.2799 128.39 29.4199C128.39 26.3499 127.84 26.3499 124.85 26.3499H124.86Z" fill="white"/>
<path d="M146.5 41.9899H141.67L135.37 24.1499H138.7L144.1 39.6499L149.45 24.1499H152.76L146.49 41.9899H146.5Z" fill="white"/>
<path d="M156.75 41.9899V24.1499H159.92V41.9899H156.75Z" fill="white"/>
<path d="M172.34 42.3098C165.83 42.3098 165.47 40.7598 165.47 33.3598C165.47 25.3798 166.23 23.8398 172.24 23.8398C176.44 23.8398 179.03 24.3598 179.03 24.3598V26.4298C179.03 26.4298 176.07 26.1398 172.92 26.1698C169.12 26.2198 168.72 26.2198 168.72 33.3798C168.72 39.9098 168.85 39.9098 172.97 39.9598C176.14 39.9898 179.19 39.6698 179.19 39.6698V41.7398C179.19 41.7398 176.57 42.2898 172.34 42.2898V42.3098Z" fill="white"/>
<path d="M183.77 41.9899V24.1499H197.04V26.3499H186.94V31.8599H196.23V33.9099H186.94V39.7899H197.2V41.9899H183.77Z" fill="white"/>
<path d="M7.06 42.3098C2.71 42.3098 0 41.7598 0 41.7598V39.8198C0 39.8198 2.28 40.1098 5.88 40.1098C9.92 40.1098 10.81 40.1098 10.81 37.2198C10.81 34.8598 10.81 34.6198 8.58 34.2298L4.36 33.4998C0.0799999 32.7698 0.08 31.1898 0.08 28.5898C0.08 24.1598 2.86 23.8398 6.72 23.8398C10.84 23.8398 13.36 24.3598 13.36 24.3598V26.2998C13.36 26.2998 11.29 26.0398 7.9 26.0398C4.25 26.0398 3.36 26.0398 3.36 28.5598C3.36 30.5298 3.36 30.8398 5.56 31.1798L9.81 31.8898C14.06 32.5998 14.06 34.1698 14.06 37.1598C14.06 41.9898 11.86 42.2998 7.06 42.2998V42.3098Z" fill="white"/>
<path d="M26.47 26.4599V41.9899H23.3V26.4599H17.5V24.1499H32.3V26.4599H26.48H26.47Z" fill="white"/>
<path d="M66.0805 34.8799H60.6505V41.9899H57.4805V24.1499H65.9505C69.7305 24.1499 72.1705 24.3099 72.1705 29.6099C72.1705 34.9099 70.1005 34.8799 66.0805 34.8799ZM65.3505 26.3499H60.6505V32.6499H65.4205C68.4405 32.6499 68.8805 32.6499 68.8805 29.5799C68.8805 26.3499 68.3305 26.3499 65.3405 26.3499H65.3505Z" fill="white"/>
<path d="M44.1602 26.3399C47.8702 26.3399 50.8902 29.3599 50.8902 33.0699C50.8902 36.7799 47.8702 39.7999 44.1602 39.7999C40.4502 39.7999 37.4302 36.7799 37.4302 33.0699C37.4302 29.3599 40.4502 26.3399 44.1602 26.3399ZM44.1602 23.8999C39.1002 23.8999 34.9902 27.9999 34.9902 33.0699C34.9902 38.1399 39.0902 42.2399 44.1602 42.2399C49.2302 42.2399 53.3302 38.1399 53.3302 33.0699C53.3302 27.9999 49.2302 23.8999 44.1602 23.8999Z" fill="white"/>
<path d="M24.59 43.0303H19.25C22.21 50.5803 28.5 56.4603 36.31 58.8703V66.1503H41.2V54.9203C33.91 53.9303 27.76 49.3603 24.59 43.0403V43.0303Z" fill="white"/>
<path d="M63.7301 43.03C60.5501 49.35 54.4001 53.92 47.1201 54.91V66.14H52.0101V58.86C59.8301 56.46 66.1201 50.58 69.0701 43.02H63.7301V43.03Z" fill="white"/>
<path d="M24.59 23.12H19.25C22.21 15.57 28.5 9.69 36.31 7.28V0H41.2V11.23C33.91 12.22 27.76 16.79 24.59 23.11V23.12Z" fill="white"/>
<path d="M63.7301 23.1198C60.5501 16.7998 54.4001 12.2298 47.1201 11.2398V0.00976562H52.0101V7.28976C59.8301 9.68976 66.1201 15.5698 69.0701 23.1298H63.7301V23.1198Z" fill="white"/>
</svg>
