<svg width="123" height="41" viewBox="0 0 123 41" fill="none" xmlns="http://www.w3.org/2000/svg">
<path d="M54.0714 26.2098C51.3582 26.2098 49.6678 25.869 49.6678 25.869V24.6669C49.6678 24.6669 51.09 24.8466 53.3354 24.8466C55.8553 24.8466 56.4104 24.8466 56.4104 23.0559C56.4104 21.5936 56.4104 21.4449 55.0195 21.2033L52.3873 20.7509C49.7177 20.2986 49.7177 19.3196 49.7177 17.7086C49.7177 14.9637 51.4517 14.7654 53.8593 14.7654C56.4291 14.7654 58.0009 15.0876 58.0009 15.0876V16.2897C58.0009 16.2897 56.7098 16.1286 54.5953 16.1286C52.3187 16.1286 51.7636 16.1286 51.7636 17.69C51.7636 18.9107 51.7636 19.1028 53.1358 19.3134L55.7867 19.7534C58.4375 20.1933 58.4375 21.1661 58.4375 23.0187C58.4375 26.0115 57.0653 26.2036 54.0714 26.2036V26.2098Z" fill="#1D1D1B"/>
<path d="M61.4314 26.0177V14.9637H69.7083V16.3269H63.4086V19.741H69.2031V21.0112H63.4086V24.6545H69.8081V26.0177H61.4314Z" fill="#1D1D1B"/>
<path d="M80.2993 26.0177L78.3346 21.3706H74.9477V26.0177H72.9705V14.9637H78.2535C80.6112 14.9637 82.1331 15.0629 82.1331 18.2663C82.1331 20.3792 81.5468 21.0484 80.2868 21.2714L82.4948 26.0177H80.2993ZM77.8792 16.3269H74.9477V20.0012H77.9229C79.8066 20.0012 80.081 20.0012 80.081 18.2291C80.081 16.3269 79.738 16.3269 77.873 16.3269H77.8792Z" fill="#1D1D1B"/>
<path d="M91.3768 26.0177H88.3642L84.4347 14.9637H86.5117L89.8799 24.5678L93.2168 14.9637H95.2814L91.3706 26.0177H91.3768Z" fill="#1D1D1B"/>
<path d="M97.77 26.0177V14.9637H99.7472V26.0177H97.77Z" fill="#1D1D1B"/>
<path d="M107.494 26.2098C103.434 26.2098 103.209 25.2493 103.209 20.6642C103.209 15.7196 103.683 14.7654 107.432 14.7654C110.051 14.7654 111.667 15.0876 111.667 15.0876V16.3702C111.667 16.3702 109.821 16.1906 107.856 16.2091C105.486 16.2401 105.236 16.2401 105.236 20.6766C105.236 24.7227 105.317 24.7227 107.887 24.7537C109.864 24.7722 111.767 24.574 111.767 24.574V25.8566C111.767 25.8566 110.132 26.1974 107.494 26.1974V26.2098Z" fill="#1D1D1B"/>
<path d="M114.623 26.0177V14.9637H122.9V16.3269H116.601V19.741H122.395V21.0112H116.601V24.6545H123V26.0177H114.623Z" fill="#1D1D1B"/>
<path d="M4.40355 26.2098C1.69031 26.2098 0 25.869 0 25.869V24.6669C0 24.6669 1.42211 24.8466 3.66755 24.8466C6.18742 24.8466 6.74254 24.8466 6.74254 23.0559C6.74254 21.5936 6.74254 21.4449 5.35162 21.2033L2.71947 20.7509C0.0498985 20.2924 0.0498986 19.3196 0.0498986 17.7086C0.0498986 14.9637 1.78387 14.7654 4.19148 14.7654C6.76126 14.7654 8.33306 15.0876 8.33306 15.0876V16.2897C8.33306 16.2897 7.04194 16.1286 4.92748 16.1286C2.65086 16.1286 2.09574 16.1286 2.09574 17.69C2.09574 18.9107 2.09574 19.1028 3.46795 19.3134L6.11881 19.7534C8.76967 20.1933 8.76967 21.1661 8.76967 23.0187C8.76967 26.0115 7.39746 26.2036 4.40355 26.2036V26.2098Z" fill="#1D1D1B"/>
<path d="M16.5102 16.3888V26.0115H14.5329V16.3888H10.9153V14.9575H20.1465V16.3888H16.5164H16.5102Z" fill="#1D1D1B"/>
<path d="M41.2163 21.6122H37.8294V26.0177H35.8522V14.9637H41.1352C43.4929 14.9637 45.0148 15.0629 45.0148 18.3469C45.0148 21.6308 43.7237 21.6122 41.2163 21.6122ZM40.7609 16.3269H37.8294V20.2305H40.8046C42.6883 20.2305 42.9627 20.2305 42.9627 18.3283C42.9627 16.3269 42.6197 16.3269 40.7547 16.3269H40.7609Z" fill="#1D1D1B"/>
<path d="M27.544 16.3145C29.858 16.3145 31.7417 18.1857 31.7417 20.4845C31.7417 22.7833 29.858 24.6545 27.544 24.6545C25.2299 24.6545 23.3462 22.7833 23.3462 20.4845C23.3462 18.1857 25.2299 16.3145 27.544 16.3145ZM27.544 14.8026C24.3879 14.8026 21.8243 17.343 21.8243 20.4845C21.8243 23.6259 24.3816 26.1664 27.544 26.1664C30.7063 26.1664 33.2636 23.6259 33.2636 20.4845C33.2636 17.343 30.7063 14.8026 27.544 14.8026Z" fill="#1D1D1B"/>
<path d="M15.3377 26.6559H12.007C13.8407 31.2968 17.7203 34.9154 22.5418 36.4272L22.5293 40.9876H25.6854V40.9752H25.7041V34.0169C21.1571 33.4035 17.3212 30.5719 15.3439 26.6559H15.3377Z" fill="#E42D12"/>
<path d="M29.3902 34.017H29.2967L29.278 40.9938H32.434V40.9814H32.4465V36.4706C37.3241 34.9836 41.2411 31.3402 43.0874 26.6621H39.7567C37.7732 30.5781 33.9372 33.4097 29.3965 34.0231L29.3902 34.017Z" fill="#E42D12"/>
<path d="M22.6477 0H22.5417L22.5292 4.55418C17.7078 6.06604 13.8344 9.6784 12.0006 14.3255H15.3313C17.3023 10.4281 21.1071 7.61508 25.6167 6.98307H25.6728V6.97068H25.6915V0H22.6415H22.6477Z" fill="#E42D12"/>
<path d="M39.7504 14.3194H43.0812C41.2349 9.64126 37.3116 5.99791 32.4403 4.50464V0.00622559H29.2904L29.2717 6.96451H29.4214C33.9497 7.58413 37.7732 10.4096 39.7442 14.3194H39.7504Z" fill="#E42D12"/>
</svg>
