<svg width="705" height="240" viewBox="0 0 705 240" fill="none" xmlns="http://www.w3.org/2000/svg">
<g filter="url(#filter0_d_118_2170)">
<path d="M311.059 149.23C295.952 149.23 286.541 147.407 286.541 147.407V140.977C286.541 140.977 294.459 141.938 306.961 141.938C320.992 141.938 324.082 141.938 324.082 132.36C324.082 124.538 324.082 123.742 316.338 122.45L301.683 120.03C286.819 117.611 286.819 112.374 286.819 103.757C286.819 89.0744 296.473 88.0138 309.878 88.0138C324.187 88.0138 332.938 89.7372 332.938 89.7372V96.167C332.938 96.167 325.749 95.3053 313.976 95.3053C301.301 95.3053 298.21 95.3053 298.21 103.657C298.21 110.187 298.21 111.214 305.85 112.341L320.61 114.694C335.369 117.047 335.369 122.251 335.369 132.161C335.369 148.169 327.729 149.196 311.059 149.196V149.23Z" fill="white"/>
<path d="M352.039 148.169V89.0414H398.123V96.3329H363.048V114.595H395.31V121.389H363.048V140.878H398.679V148.169H352.039Z" fill="white"/>
<path d="M457.092 148.169L446.153 123.312H427.295V148.169H416.286V89.0414H445.701C458.829 89.0414 467.302 89.5717 467.302 106.707C467.302 118.009 464.038 121.588 457.023 122.781L469.317 148.169H457.092ZM443.618 96.3329H427.295V115.987H443.861C454.349 115.987 455.877 115.987 455.877 106.508C455.877 96.3329 453.967 96.3329 443.583 96.3329H443.618Z" fill="white"/>
<path d="M518.769 148.169H501.995L480.116 89.0414H491.681L510.434 140.414L529.014 89.0414H540.509L518.734 148.169H518.769Z" fill="white"/>
<path d="M554.366 148.169V89.0414H565.375V148.169H554.366Z" fill="white"/>
<path d="M608.508 149.23C585.899 149.23 584.649 144.092 584.649 119.566C584.649 93.1178 587.289 88.0137 608.16 88.0137C622.746 88.0137 631.741 89.7372 631.741 89.7372V96.5979C631.741 96.5979 621.461 95.6367 610.522 95.7362C597.325 95.9019 595.936 95.9018 595.936 119.633C595.936 141.275 596.387 141.275 610.695 141.441C621.704 141.54 632.296 140.48 632.296 140.48V147.34C632.296 147.34 623.198 149.163 608.508 149.163V149.23Z" fill="white"/>
<path d="M648.201 148.169V89.0414H694.286V96.3329H659.21V114.595H691.473V121.389H659.21V140.878H694.841V148.169H648.201Z" fill="white"/>
<path d="M34.5182 149.23C19.4114 149.23 10 147.407 10 147.407V140.977C10 140.977 17.9181 141.938 30.4203 141.938C44.4505 141.938 47.5413 141.938 47.5413 132.36C47.5413 124.538 47.5413 123.742 39.7969 122.45L25.1416 120.03C10.2778 117.611 10.2778 112.374 10.2778 103.757C10.2778 89.0744 19.9323 88.0138 33.3374 88.0138C47.6455 88.0138 56.3971 89.7372 56.3971 89.7372V96.167C56.3971 96.167 49.2083 95.3053 37.4354 95.3053C24.7595 95.3053 21.6687 95.3053 21.6687 103.657C21.6687 110.187 21.6687 111.214 29.309 112.341L44.0685 114.694C58.828 117.047 58.828 122.251 58.828 132.161C58.828 148.169 51.1878 149.196 34.5182 149.196V149.23Z" fill="white"/>
<path d="M101.926 96.6975V148.169H90.9171V96.6975H70.7747V89.0414H122.173V96.6975H101.961H101.926Z" fill="white"/>
<path d="M239.485 124.604H220.627V148.169H209.618V89.0414H239.033C252.16 89.0414 260.634 89.5716 260.634 107.138C260.634 124.704 253.445 124.604 239.485 124.604ZM236.949 96.3329H220.627V117.213H237.192C247.68 117.213 249.208 117.213 249.208 107.038C249.208 96.3329 247.298 96.3329 236.915 96.3329H236.949Z" fill="white"/>
<path d="M163.361 96.2996C176.245 96.2996 186.733 106.309 186.733 118.605C186.733 130.901 176.245 140.911 163.361 140.911C150.476 140.911 139.988 130.901 139.988 118.605C139.988 106.309 150.476 96.2996 163.361 96.2996ZM163.361 88.2126C145.788 88.2126 131.515 101.801 131.515 118.605C131.515 135.409 145.753 148.998 163.361 148.998C180.968 148.998 195.206 135.409 195.206 118.605C195.206 101.801 180.968 88.2126 163.361 88.2126Z" fill="white"/>
<path d="M95.3975 151.616H76.8525C87.1321 176.639 108.976 196.127 136.099 204.115V228.243H153.081V191.023C127.764 187.742 106.406 172.595 95.3975 151.649V151.616Z" fill="white"/>
<path d="M231.325 151.616C220.281 172.563 198.923 187.709 173.641 190.99V228.21H190.623V204.082C217.781 196.128 239.625 176.639 249.87 151.583H231.325V151.616Z" fill="white"/>
<path d="M95.3975 85.6275H76.8525C87.1321 60.6043 108.976 41.116 136.099 33.1284V9H153.081V46.22C127.764 49.5012 106.406 64.6477 95.3975 85.5944V85.6275Z" fill="white"/>
<path d="M231.325 85.6271C220.281 64.6804 198.923 49.5339 173.641 46.2527V9.03265H190.623V33.161C217.781 41.1155 239.625 60.6038 249.87 85.6602H231.325V85.6271Z" fill="white"/>
</g>
<defs>
<filter id="filter0_d_118_2170" x="0" y="0" width="704.841" height="239.243" filterUnits="userSpaceOnUse" color-interpolation-filters="sRGB">
<feFlood flood-opacity="0" result="BackgroundImageFix"/>
<feColorMatrix in="SourceAlpha" type="matrix" values="0 0 0 0 0 0 0 0 0 0 0 0 0 0 0 0 0 0 127 0" result="hardAlpha"/>
<feOffset dy="1"/>
<feGaussianBlur stdDeviation="5"/>
<feComposite in2="hardAlpha" operator="out"/>
<feColorMatrix type="matrix" values="0 0 0 0 0 0 0 0 0 0 0 0 0 0 0 0 0 0 0.4 0"/>
<feBlend mode="normal" in2="BackgroundImageFix" result="effect1_dropShadow_118_2170"/>
<feBlend mode="normal" in="SourceGraphic" in2="effect1_dropShadow_118_2170" result="shape"/>
</filter>
</defs>
</svg>
