<svg width="421" height="142" viewBox="0 0 421 142" fill="none" xmlns="http://www.w3.org/2000/svg">
<path d="M185.073 90.3063C175.787 90.3063 170.001 89.1322 170.001 89.1322V84.9905C170.001 84.9905 174.869 85.6096 182.554 85.6096C191.179 85.6096 193.079 85.6096 193.079 79.4397C193.079 74.4014 193.079 73.889 188.318 73.0564L179.309 71.4979C170.172 69.9395 170.172 66.5663 170.172 61.0156C170.172 51.558 176.107 50.8749 184.347 50.8749C193.143 50.8749 198.523 51.985 198.523 51.985V56.1267C198.523 56.1267 194.104 55.5716 186.867 55.5716C179.074 55.5716 177.174 55.5716 177.174 60.9516C177.174 65.1573 177.174 65.8191 181.871 66.545L190.944 68.0608C200.018 69.5765 200.018 72.9283 200.018 79.3117C200.018 89.6232 195.321 90.285 185.073 90.285V90.3063Z" fill="#1D1D1B"/>
<path d="M210.266 89.6446V51.5581H238.596V56.2548H217.033V68.0181H236.866V72.3946H217.033V84.9478H238.937V89.6446H210.266Z" fill="#1D1D1B"/>
<path d="M274.847 89.6446L268.122 73.6329H256.529V89.6446H249.762V51.5581H267.844C275.914 51.5581 281.123 51.8997 281.123 62.9371C281.123 70.217 279.117 72.5227 274.804 73.2913L282.362 89.6446H274.847ZM266.563 56.2548H256.529V68.9148H266.713C273.16 68.9148 274.1 68.9148 274.1 62.809C274.1 56.2548 272.925 56.2548 266.542 56.2548H266.563Z" fill="#1D1D1B"/>
<path d="M312.76 89.6446H302.449L288.999 51.5581H296.108L307.637 84.6489L319.058 51.5581H326.125L312.739 89.6446H312.76Z" fill="#1D1D1B"/>
<path d="M334.645 89.6446V51.5581H341.412V89.6446H334.645Z" fill="#1D1D1B"/>
<path d="M367.926 90.3063C354.028 90.3063 353.26 86.9973 353.26 71.1991C353.26 54.1626 354.882 50.8749 367.713 50.8749C376.68 50.8749 382.209 51.985 382.209 51.985V56.4043C382.209 56.4043 375.89 55.7851 369.165 55.8492C361.052 55.9559 360.198 55.9559 360.198 71.2418C360.198 85.1826 360.476 85.1826 369.271 85.2893C376.039 85.3534 382.55 84.6702 382.55 84.6702V89.0895C382.55 89.0895 376.957 90.2636 367.926 90.2636V90.3063Z" fill="#1D1D1B"/>
<path d="M392.328 89.6446V51.5581H420.658V56.2548H399.096V68.0181H418.929V72.3946H399.096V84.9478H421V89.6446H392.328Z" fill="#1D1D1B"/>
<path d="M15.0723 90.3063C5.78556 90.3063 0 89.1322 0 89.1322V84.9905C0 84.9905 4.86756 85.6096 12.5532 85.6096C21.1781 85.6096 23.0782 85.6096 23.0782 79.4397C23.0782 74.4014 23.0782 73.889 18.3174 73.0564L9.30813 71.4979C0.170791 69.9181 0.170791 66.5663 0.170791 61.0156C0.170791 51.558 6.10579 50.8749 14.3465 50.8749C23.1422 50.8749 28.5222 51.985 28.5222 51.985V56.1267C28.5222 56.1267 24.1029 55.5716 16.8657 55.5716C9.07329 55.5716 7.17324 55.5716 7.17324 60.9516C7.17324 65.1573 7.17324 65.8191 11.87 66.545L20.9433 68.0608C30.0166 69.5765 30.0166 72.9283 30.0166 79.3117C30.0166 89.6232 25.3198 90.285 15.0723 90.285V90.3063Z" fill="#1D1D1B"/>
<path d="M56.5103 56.4683V89.6232H49.7427V56.4683H37.3604V51.5367H68.9568V56.4683H56.5317H56.5103Z" fill="#1D1D1B"/>
<path d="M141.075 74.4655H129.482V89.6446H122.715V51.5581H140.797C148.867 51.5581 154.076 51.8997 154.076 63.2146C154.076 74.5295 149.657 74.4655 141.075 74.4655ZM139.516 56.2548H129.482V69.7047H139.666C146.113 69.7047 147.053 69.7047 147.053 63.1505C147.053 56.2548 145.878 56.2548 139.495 56.2548H139.516Z" fill="#1D1D1B"/>
<path d="M94.2772 56.2123C102.198 56.2123 108.645 62.6597 108.645 70.5801C108.645 78.5006 102.198 84.948 94.2772 84.948C86.3567 84.948 79.9093 78.5006 79.9093 70.5801C79.9093 62.6597 86.3567 56.2123 94.2772 56.2123ZM94.2772 51.0032C83.4746 51.0032 74.7002 59.7562 74.7002 70.5801C74.7002 81.4041 83.4533 90.1571 94.2772 90.1571C105.101 90.1571 113.854 81.4041 113.854 70.5801C113.854 59.7562 105.101 51.0032 94.2772 51.0032Z" fill="#1D1D1B"/>
<path d="M52.496 91.8432H41.0957C47.3723 107.834 60.6513 120.301 77.154 125.51L77.1113 141.223H87.9139V141.181H87.9779V117.206C72.4146 115.092 59.285 105.336 52.5174 91.8432H52.496Z" fill="#E42D12"/>
<path d="M100.597 117.206H100.277L100.213 141.245H111.015V141.202H111.058V125.66C127.753 120.536 141.16 107.983 147.479 91.8648H136.079C129.29 105.357 116.161 115.114 100.619 117.227L100.597 117.206Z" fill="#E42D12"/>
<path d="M77.5178 0H77.1549L77.1122 15.6915C60.6095 20.9006 47.3518 33.347 41.0752 49.3587H52.4755C59.2218 35.9302 72.2446 26.2378 87.6799 24.0602H87.872V24.0175H87.9361V0H77.4965H77.5178Z" fill="#E42D12"/>
<path d="M136.06 49.3374H147.46C141.141 33.219 127.712 20.6658 111.039 15.5207V0.0213928H100.257L100.193 23.9962H100.706C116.205 26.1311 129.292 35.8662 136.038 49.3374H136.06Z" fill="#E42D12"/>
</svg>
