<svg width="123" height="123" viewBox="0 0 123 123" fill="none" xmlns="http://www.w3.org/2000/svg">
<path d="M13.7377 49.5417H109.404" stroke="white" stroke-width="2" stroke-miterlimit="10" stroke-linecap="round" stroke-linejoin="round"/>
<path d="M13.7377 44.4167V58.0834" stroke="white" stroke-width="2" stroke-miterlimit="10" stroke-linecap="round" stroke-linejoin="round"/>
<path d="M109.404 44.4167V58.0834" stroke="white" stroke-width="2" stroke-miterlimit="10" stroke-linecap="round" stroke-linejoin="round"/>
<path d="M61.5711 44.4167V58.0834" stroke="white" stroke-width="2" stroke-miterlimit="10" stroke-linecap="round" stroke-linejoin="round"/>
<path d="M37.6544 44.4167V54.6667" stroke="white" stroke-width="2" stroke-miterlimit="10" stroke-linecap="round" stroke-linejoin="round"/>
<path d="M85.4877 44.4167V54.6667" stroke="white" stroke-width="2" stroke-miterlimit="10" stroke-linecap="round" stroke-linejoin="round"/>
<path d="M13.6812 78.4217C11.8739 78.4217 10.4089 76.9566 10.4089 75.1494V69.7359C10.4089 67.9286 11.8739 66.4634 13.6812 66.4634C15.4886 66.4634 16.9537 67.9286 16.9537 69.7359V75.1494C16.9537 76.9566 15.4886 78.4217 13.6812 78.4217Z" stroke="white" stroke-width="2" stroke-miterlimit="10" stroke-linecap="round" stroke-linejoin="round"/>
<path d="M105.632 69.3788C105.975 67.705 107.456 66.4458 109.231 66.4458C110.245 66.4458 111.163 66.857 111.828 67.5217C112.862 68.5558 112.767 70.274 111.796 71.368L105.557 78.4041H112.904" stroke="white" stroke-width="2" stroke-miterlimit="10" stroke-linecap="round" stroke-linejoin="round"/>
<path d="M59.9982 69.0378L63.3088 66.5576V78.5159" stroke="white" stroke-width="2" stroke-miterlimit="10" stroke-linecap="round" stroke-linejoin="round"/>
<rect x="13" y="43" width="97" height="19" rx="1" stroke="white" stroke-width="2"/>
</svg>
